PathFileType	4	(X/Y/Z)	/Users/niels/Desktop/University/Third Semester/Perception and Action/Exam/Gymnastics Motion Tracking/Code for Gym Tracking/Analyzed Data/Webcam_Backflip/id8_1_pure_Sports2D/id8_1_pure_Sports2D_px_person00.trc
DataRate	CameraRate	NumFrames	NumMarkers	Units	OrigDataRate	OrigDataStartFrame	OrigNumFrames
29.8125	29.8125	7	22	m	29.8125	140	160
Frame#	Time	Hip			RHip			RKnee			RAnkle			RBigToe			RSmallToe			RHeel			LHip			LKnee			LAnkle			LBigToe			LSmallToe			LHeel			Neck			Head			Nose			RShoulder			RElbow			RWrist			LShoulder			LElbow			LWrist		
		X1	Y1	Z1	X2	Y2	Z2	X3	Y3	Z3	X4	Y4	Z4	X5	Y5	Z5	X6	Y6	Z6	X7	Y7	Z7	X8	Y8	Z8	X9	Y9	Z9	X10	Y10	Z10	X11	Y11	Z11	X12	Y12	Z12	X13	Y13	Z13	X14	Y14	Z14	X15	Y15	Z15	X16	Y16	Z16	X17	Y17	Z17	X18	Y18	Z18	X19	Y19	Z19	X20	Y20	Z20	X21	Y21	Z21	X22	Y22	Z22
140	4.696016771488469	0.9543282554838026	-0.5800647936381318	0.0	0.934586711561875	-0.5856337879958056	0.0	0.9379539204622745	-0.6787831868853028	0.0	0.9397716369228849	-0.7679641660419009	0.0	0.9529042534417617	-0.7854264533906212	0.0	0.9410324032846652	-0.7854059739733978	0.0	0.9377202678945753	-0.7785165039223338	0.0	0.9754476919041173	-0.5819441656479256	0.0	0.9734598162317858	-0.6735303049110902	0.0	0.9726286539461614	-0.7714032697878077	0.0	0.9717049753838769	-0.7911114053756466	0.0	0.9841105821712345	-0.7904184403930551	0.0	0.9693427081450792	-0.7849096241373311	0.0	0.947472431429112	-0.44899950031529906	0.0	0.9461899690354472	-0.38880136446074315	0.0	0.952319317010658	-0.41992049114519264	0.0	0.9110031831477996	-0.4740707361878385	0.0	0.9057161027965351	-0.5391243427276573	0.0	0.9126405201476576	-0.597924554903351	0.0	0.9836810899825037	-0.4676063738910668	0.0	1.0035957287221344	-0.5248647256283705	0.0	1.02773725048311	-0.5774192417546125	0.0
141	4.729559748427672	0.9542660891740562	-0.5836016448431178	0.0	0.9343692359886406	-0.5888467337805519	0.0	0.9375026318440153	-0.6816013299335167	0.0	0.9397246690398307	-0.7706796042522783	0.0	0.9519054447447645	-0.7883715094174257	0.0	0.9403109483708929	-0.7881583748887788	0.0	0.9377431179600467	-0.7809021146281145	0.0	0.9753206358835539	-0.5852057388501627	0.0	0.971986242750259	-0.6769858147796639	0.0	0.9708462660206731	-0.7749620323283206	0.0	0.9683708984848153	-0.794421689432136	0.0	0.9811381402070307	-0.793835832273313	0.0	0.9686106166911461	-0.7882767792334328	0.0	0.947431091461088	-0.45277748453248035	0.0	0.946607570926164	-0.3923115713997236	0.0	0.9525561643655479	-0.42369500987886033	0.0	0.9106844035284155	-0.4780468808525143	0.0	0.9055570878201208	-0.5428236795540917	0.0	0.9118442413486881	-0.6021561320822986	0.0	0.9839619417032985	-0.47117823310207435	0.0	1.0032999138567253	-0.528946589800928	0.0	1.0285826299902772	-0.5820421351140541	0.0
142	4.763102725366876	0.9542913433951096	-0.5870299710350513	0.0	0.9342735307087184	-0.591967164527458	0.0	0.9371361948654566	-0.6843708798649654	0.0	0.9396065693101691	-0.7734792460774929	0.0	0.951557242320567	-0.7912549969449619	0.0	0.9399983633797931	-0.7909409267207063	0.0	0.9376438075467519	-0.7834332251790558	0.0	0.9751864821366257	-0.5884783699164644	0.0	0.9707864468769202	-0.6804157833101997	0.0	0.9697594590795147	-0.7786200136290957	0.0	0.9660610078773164	-0.7978059927740947	0.0	0.9790674194111101	-0.7971972913615456	0.0	0.9683558459412416	-0.7917361833128147	0.0	0.9474268986301669	-0.45633382355424024	0.0	0.9471354697174011	-0.3957661413641838	0.0	0.9528011304965909	-0.427414800224985	0.0	0.9104425817310812	-0.4817589236760168	0.0	0.9058405730434377	-0.5464711915748699	0.0	0.911457857344184	-0.6062774438735412	0.0	0.9841460879368864	-0.4745996755941337	0.0	1.0023888884110062	-0.5333087253941805	0.0	1.0277490899234956	-0.5872365010013193	0.0
143	4.796645702306079	0.9544231928242052	-0.5899125382207593	0.0	0.9343329108627699	-0.5946232829480012	0.0	0.9369443097554994	-0.6867344871369445	0.0	0.9395197210016331	-0.7759676323442797	0.0	0.9516360050268903	-0.7936787883278462	0.0	0.9399493847841093	-0.7933092718332422	0.0	0.9375707459485082	-0.785822939269866	0.0	0.9751281755417098	-0.5913404699010426	0.0	0.9699802607183322	-0.6833880265921968	0.0	0.9692775980364476	-0.7818849474210728	0.0	0.9646668586995137	-0.8008591589534816	0.0	0.9778084440798642	-0.8001403027932679	0.0	0.9683790503796432	-0.7948178253274144	0.0	0.9474844124827105	-0.45917604033863696	0.0	0.9477558146435665	-0.3987268511527357	0.0	0.9530397269557139	-0.43059876624769017	0.0	0.9103022516916675	-0.4847027098059675	0.0	0.906502483945125	-0.5495704433919032	0.0	0.9114269066754458	-0.6097000523974305	0.0	0.984243293676969	-0.47746151996660685	0.0	1.0009625469860384	-0.5373647841243239	0.0	1.0252237899701753	-0.5923340268887155	0.0
144	4.830188679245282	0.9547433092844977	-0.5918259722643797	0.0	0.9346253559865005	-0.5964210396644536	0.0	0.9369536251628028	-0.6883425221670249	0.0	0.9395529376969418	-0.7778184823471632	0.0	0.9519174701406721	-0.7952929370277629	0.0	0.9400187178483261	-0.794889024398449	0.0	0.9376805047325365	-0.787810895376752	0.0	0.9752414231273455	-0.593353204809797	0.0	0.9695920712987257	-0.6855302625829762	0.0	0.9692290865365796	-0.784246173516668	0.0	0.9640041244144998	-0.8031501771702109	0.0	0.977169928062964	-0.8023029451089733	0.0	0.9684397754246504	-0.7970666607987116	0.0	0.9476354390808442	-0.4609431449142033	0.0	0.9484474101163709	-0.40078489057804356	0.0	0.9532826784732599	-0.4328136047929242	0.0	0.9103023502207657	-0.48651531195565645	0.0	0.9073499590511105	-0.55167472415879	0.0	0.9116723447055628	-0.6119824326571601	0.0	0.9842901437221647	-0.4794112004597255	0.0	0.9991873969032908	-0.540618423432159	0.0	1.0212102047521874	-0.596692106814826	0.0
145	4.863731656184486	0.9553340696710997	-0.5924533959773043	0.0	0.9352292143796889	-0.5970435340741107	0.0	0.9371463408426819	-0.6889209383750869	0.0	0.9397754740996654	-0.7787844421949399	0.0	0.9523142717342423	-0.7959035134015301	0.0	0.9401575366062769	-0.7954662339055175	0.0	0.938064900598729	-0.7891233381021006	0.0	0.9755857645598952	-0.594157812997004	0.0	0.9695671672739423	-0.6865968060928305	0.0	0.9694562320492884	-0.7853429559099374	0.0	0.9639224846093658	-0.8043575099953192	0.0	0.9769873828158367	-0.803398984829065	0.0	0.9684015085859198	-0.7981765000511015	0.0	0.9479057175751289	-0.46146946037348985	0.0	0.9491959556773124	-0.4016210660063131	0.0	0.9535655325177754	-0.43374898842658177	0.0	0.9104809888206205	-0.48701555354383863	0.0	0.9081620374392104	-0.552496568801569	0.0	0.9121398150924591	-0.6129134130986427	0.0	0.984336069020784	-0.48022311589340916	0.0	0.997299827491725	-0.5427148842871435	0.0	1.0161837149092634	-0.5997842630363998	0.0
146	4.897274633123689	0.9561854801362456	-0.5916903210198354	0.0	0.9361362710221265	-0.5963476200486453	0.0	0.9374758289349707	-0.6883638428675927	0.0	0.9402258499394195	-0.7787109735627912	0.0	0.9528342789092944	-0.7954784183938555	0.0	0.9403915967548848	-0.7949715831755572	0.0	0.938724451536071	-0.789479514862915	0.0	0.9761437493330466	-0.5935824011121694	0.0	0.9698148844973306	-0.6865235918653455	0.0	0.9698371340134138	-0.7850898566999845	0.0	0.9643173095093371	-0.8043877608868362	0.0	0.9771754364906077	-0.8033118703211467	0.0	0.9682472187466705	-0.7980560789674492	0.0	0.9483012249075727	-0.46077610670031793	0.0	0.949991822328968	-0.40109505194301714	0.0	0.953947092023601	-0.4332917124858394	0.0	0.9108447191368296	-0.48618768472549573	0.0	0.9088127998128361	-0.5519497063072129	0.0	0.9128074489366296	-0.6124837833768806	0.0	0.984429485821812	-0.4798067332240793	0.0	0.9955716632291683	-0.5434344040056046	0.0	1.0108901614325938	-0.6012475895123102	0.0
